<svg width="84" height="84" viewBox="0 0 84 84" fill="none" xmlns="http://www.w3.org/2000/svg">
<g clip-path="url(#clip0_111_4)">
<path fill-rule="evenodd" clip-rule="evenodd" d="M37.5405 0.198942C18.314 2.39203 3.08516 17.2182 0.325727 36.4295C-0.111772 39.475 -0.107913 45.2061 0.333442 48.1769C1.82465 58.2129 6.84229 67.4992 14.2502 73.9323C15.2407 74.7926 16.0512 75.6063 16.0512 75.7409C16.0512 75.8752 16.1864 75.9852 16.3515 75.9852C16.5167 75.9852 17.5856 76.6067 18.7269 77.3662C23.8823 80.7972 29.597 83.0066 35.8941 84.0035C38.8515 84.4718 45.6145 84.4697 48.4688 83.9998C57.8904 82.4488 66.0875 78.2253 72.4425 71.6475C82.198 61.5499 86.2308 47.8379 83.5353 33.9301C80.28 17.1321 66.7296 3.75785 49.8296 0.66223C46.2583 0.00823057 40.9637 -0.191475 37.5405 0.198942ZM49.2953 1.63139C51.4324 2.02915 52.4364 2.27841 54.6498 2.96123L55.8715 3.33806L55.9918 4.13909C56.0579 4.57962 56.3371 5.38596 56.6123 5.93112L57.1124 6.92212L55.0865 7.0473C50.8449 7.30923 47.2 8.01206 43.6008 9.26187C40.3758 10.3817 40.783 10.3533 38.0603 9.6499C35.3713 8.95552 32.5414 8.62365 29.2754 8.62035C28.1137 8.61906 26.7356 8.56675 26.2129 8.50398L25.2626 8.38981L25.1616 7.54198C25.1061 7.07557 25.0378 6.28097 25.0099 5.7762L24.9592 4.85843L25.9694 4.36174C28.2852 3.22316 33.0213 1.91314 36.8058 1.36432C39.5098 0.972066 46.5632 1.12295 49.2953 1.63139ZM24.802 6.62348L24.9728 8.29656L23.1155 10.1569C22.0939 11.18 20.3131 13.256 19.1578 14.7703C16.1692 18.6882 15.7282 19.3105 14.8493 20.8518C14.4184 21.6075 14.0118 22.1383 13.9457 22.0315C13.7592 21.7299 13.5179 21.8022 13.5462 22.1513C13.5607 22.3296 13.4143 22.4977 13.2079 22.5401C12.725 22.6388 10.1257 24.3584 8.36821 25.7416C7.59349 26.3512 5.94709 27.8448 4.70971 29.0606C3.47215 30.2765 2.45977 31.2148 2.45977 31.1458C2.45977 30.5828 4.02389 26.5509 5.10956 24.315C8.32596 17.6915 13.1451 12.1031 19.0818 8.11209C20.3807 7.23875 24.3138 4.95259 24.5197 4.95113C24.581 4.95058 24.7081 5.70314 24.802 6.62348ZM60.8298 8.82134C64.8777 11.2729 69.8182 14.9814 70.3115 15.9386C70.5913 16.4814 71.2126 19.4742 71.5361 21.8371C71.7699 23.5447 71.7901 30.1227 71.5653 31.2794L71.4246 32.0032L68.5687 32.8492C66.998 33.3145 64.8911 33.9958 63.8866 34.3629C60.3584 35.6527 56.3992 36.8029 56.3187 36.5615C56.2093 36.2333 55.9073 36.4813 55.9073 36.8992C55.9073 37.0953 55.8579 37.2555 55.7975 37.2555C55.7373 37.2555 54.8582 36.4264 53.8442 35.413C50.664 32.2348 47.3877 29.8237 43.3934 27.722L41.3259 26.6341L41.3762 25.6864C41.4039 25.1651 41.291 23.6934 41.1251 22.416C40.8379 20.2033 40.841 19.8977 41.19 15.9634C41.3915 13.6919 41.6666 11.4696 41.8014 11.0249C42.0336 10.2589 42.1094 10.1925 43.2373 9.76866C44.9947 9.10805 49.1123 8.11319 51.3156 7.81694C52.3763 7.67432 54.4674 7.54913 55.9626 7.53886L58.6811 7.51995L60.8298 8.82134ZM71.5192 17.3509C71.5192 17.4964 71.4365 17.6154 71.3355 17.6154C71.2345 17.6154 71.1518 17.4452 71.1518 17.2374C71.1518 17.0296 71.2345 16.9105 71.3355 16.9729C71.4365 17.0353 71.5192 17.2053 71.5192 17.3509ZM76.5526 19.4968C81.4589 26.9345 83.9063 36.1048 83.2778 44.6947C83.1672 46.2061 83.0297 47.5973 82.9722 47.7863C82.8761 48.1022 82.6987 48.1233 80.7606 48.0492C79.3051 47.9936 78.608 47.895 78.5063 47.7303C78.4253 47.5995 78.1838 46.5978 77.9698 45.5048C77.7558 44.4115 77.3178 42.7898 76.9963 41.9007C76.2501 39.8372 74.3739 36.1595 73.0912 34.2453C72.5431 33.4275 72.0445 32.552 71.9831 32.2996C71.9218 32.0472 71.9541 30.6162 72.0549 29.1197C72.2483 26.248 72.088 22.6766 71.6393 19.8606C71.4563 18.7123 71.4492 18.3002 71.6104 18.1666C71.9366 17.8958 73.1512 17.6543 74.2878 17.6337L75.3116 17.6154L76.5526 19.4968ZM14.8739 23.8152C18.224 28.5 20.3974 31.3247 21.6137 32.5744L23.0435 34.0433L22.4923 35.9707C21.1701 40.5955 20.7715 43.4829 20.7747 48.413L20.777 52.1365L19.8376 52.7854C19.3209 53.1422 18.0303 54.0464 16.9696 54.7949C14.6295 56.4462 12.4457 57.7835 11.8324 57.9407C11.5828 58.0047 11.1818 58.2395 10.9412 58.4625C10.5439 58.8305 10.4571 58.8447 9.9979 58.6158C9.46287 58.3491 7.91693 56.6762 6.37302 54.6931C5.07907 53.0312 3.62038 50.7503 2.26472 48.2687L1.11165 46.1578L1.02789 43.3078C0.936057 40.1751 1.17446 37.1006 1.71885 34.3961C2.11356 32.4345 2.28988 32.1693 5.06879 29.3528C7.50533 26.8833 11.5962 23.6735 12.3094 23.6717C12.4985 23.6711 12.9013 23.4676 13.2044 23.2194C13.5074 22.9713 13.838 22.7673 13.9391 22.7664C14.0401 22.7653 14.4609 23.2374 14.8739 23.8152ZM42.4562 27.7831C47.1408 30.1335 51.3465 33.3022 54.6431 36.9653L55.9354 38.4013L55.8184 40.444C55.7542 41.5675 55.545 43.3541 55.3536 44.4141C55.1622 45.4741 54.9192 47.0435 54.8138 47.9016C54.2453 52.5227 54.0706 54.1314 54.0706 54.7415C54.0706 55.3742 53.9812 55.4803 52.6472 56.4284C48.6043 59.3017 41.8789 61.8599 35.8369 62.8226C34.5199 63.0324 27.0464 57.9129 22.6633 53.7986L21.2858 52.5055L21.2876 47.8632C21.2898 42.6839 21.5701 40.4638 22.7298 36.4427C23.2331 34.6979 23.3736 34.4022 23.7242 34.3517C23.9648 34.3172 24.1327 34.1638 24.1327 33.9784C24.1327 33.6368 27.3889 31.4277 28.9935 30.6807C34.7825 27.9854 38.2524 26.6471 39.5175 26.6216C39.9059 26.6137 40.9411 27.0228 42.4562 27.7831ZM3.56527 51.3087C5.00836 53.6756 6.92255 56.1732 8.90231 58.2723C9.37838 58.7771 9.82745 59.3966 9.90037 59.649C10.1158 60.3942 11.4494 63.4862 12.1999 64.9808C13.0181 66.61 15.7723 71.2132 16.8396 72.7354L17.5856 73.7993L17.1973 74.1873L16.8091 74.5753L14.9772 72.981C8.2468 67.1231 3.56729 58.9953 1.73649 49.9836C1.18383 47.2626 1.24627 47.0185 2.07903 48.6472C2.46951 49.4108 3.13824 50.6085 3.56527 51.3087ZM82.7861 49.0947C82.7255 49.4985 82.4078 50.9027 82.0797 52.2151C80.0074 60.5065 75.2217 68.0922 68.5053 73.7319C67.0015 74.9947 66.8172 75.0975 66.2301 75.0023C65.8787 74.9454 65.4249 74.7203 65.2215 74.5023L64.8518 74.1058L65.5233 72.0627C66.3419 69.5713 66.8222 67.653 67.2193 65.2881C67.4393 63.9775 67.6357 63.3584 67.9463 62.9937C68.8075 61.9825 77.3183 50.8403 78.3149 49.4194L79.117 48.2757L81.0066 48.3181L82.8961 48.3605L82.7861 49.0947ZM56.4877 57.0972C58.8424 58.1552 61.5125 59.6932 63.0458 60.8746C63.615 61.3131 64.5974 62.0627 65.2291 62.5401L66.3775 63.4083L66.2708 64.6033C66.051 67.0645 64.5636 73.6269 63.9775 74.7211C63.8771 74.9088 62.8094 75.6452 61.6049 76.3576C57.7106 78.6605 54.4868 79.9698 50.1218 81.021C48.6065 81.3859 47.1102 81.766 46.7966 81.8657C46.3178 82.0178 45.8776 81.9266 44.0497 81.2967C40.1963 79.9688 35.3906 77.4789 34.9915 76.6036C34.8773 76.353 34.6345 76.1687 34.4185 76.1687C34.1235 76.1687 34.0644 76.0808 34.141 75.7557C34.1942 75.5285 34.478 74.1451 34.7713 72.6812C35.0646 71.2174 35.6423 68.9626 36.0551 67.6706C36.468 66.3784 36.8058 65.1565 36.8058 64.9551C36.8058 64.7156 36.9105 64.6075 37.1081 64.6427C37.688 64.7462 37.5568 64.2622 36.8809 63.8031C36.1077 63.278 35.9962 63.3512 38.1833 62.9476C42.586 62.1348 48.2766 59.8513 52.323 57.2733C53.1297 56.7593 53.8943 56.379 54.022 56.428C54.1498 56.477 54.2543 56.437 54.2543 56.3393C54.2543 56.0873 54.1961 56.0675 56.4877 57.0972ZM20.0446 74.764C22.1606 75.8136 22.3781 75.8914 24.9592 76.5212C28.1258 77.2939 29.8978 77.5074 32.3522 77.4121L34.5099 77.3284L36.0006 78.2181C38.8432 79.9147 43.0131 81.7185 45.9615 82.5272C47.0033 82.8128 47.0815 82.8655 46.6962 83.0221C45.915 83.339 38.7723 83.2592 36.5228 82.9081C33.8149 82.4855 30.5115 81.6662 28.2652 80.8596C24.9853 79.6821 20.5104 77.2752 17.4335 75.0335C17.2523 74.9013 17.9989 73.9661 18.2859 73.9661C18.3686 73.9661 19.16 74.3251 20.0446 74.764Z" fill="black"/>
<path d="M42.4562 27.7831C47.1408 30.1335 51.3465 33.3022 54.6431 36.9653L55.9354 38.4013L55.8184 40.444C55.7542 41.5675 55.545 43.3541 55.3536 44.4141C55.1622 45.4741 54.9192 47.0435 54.8138 47.9016C54.2453 52.5227 54.0706 54.1314 54.0706 54.7415C54.0706 55.3742 53.9812 55.4803 52.6472 56.4284C48.6043 59.3017 41.8789 61.8599 35.8369 62.8226C34.5199 63.0324 27.0464 57.9129 22.6633 53.7986L21.2858 52.5055L21.2876 47.8632C21.2898 42.6839 21.5701 40.4638 22.7298 36.4427C23.2331 34.6979 23.3736 34.4022 23.7242 34.3517C23.9648 34.3172 24.1327 34.1638 24.1327 33.9784C24.1327 33.6368 27.3889 31.4277 28.9935 30.6807C34.7825 27.9854 38.2524 26.6471 39.5175 26.6216C39.9059 26.6137 40.9411 27.0228 42.4562 27.7831Z" fill="white"/>
<path d="M56.4877 57.0972C58.8424 58.1552 61.5125 59.6932 63.0458 60.8746C63.615 61.3131 64.5974 62.0627 65.2291 62.5401L66.3775 63.4083L66.2708 64.6033C66.051 67.0645 64.5636 73.6269 63.9775 74.7211C63.8771 74.9088 62.8094 75.6452 61.6049 76.3576C57.7106 78.6605 54.4868 79.9698 50.1218 81.021C48.6065 81.3859 47.1102 81.766 46.7966 81.8657C46.3178 82.0178 45.8776 81.9266 44.0497 81.2967C40.1963 79.9688 35.3906 77.4789 34.9915 76.6036C34.8773 76.353 34.6345 76.1687 34.4185 76.1687C34.1235 76.1687 34.0644 76.0808 34.141 75.7557C34.1942 75.5285 34.478 74.1451 34.7713 72.6812C35.0646 71.2174 35.6423 68.9626 36.0551 67.6706C36.468 66.3784 36.8058 65.1565 36.8058 64.9551C36.8058 64.7156 36.9105 64.6075 37.1081 64.6427C37.688 64.7462 37.5568 64.2622 36.8809 63.8031C36.1077 63.278 35.9962 63.3512 38.1833 62.9476C42.586 62.1348 48.2766 59.8513 52.323 57.2733C53.1297 56.7593 53.8943 56.379 54.022 56.428C54.1498 56.477 54.2543 56.437 54.2543 56.3393C54.2543 56.0873 54.1961 56.0675 56.4877 57.0972Z" fill="white"/>
<path d="M82.7861 49.0947C82.7255 49.4985 82.4078 50.9027 82.0797 52.2151C80.0074 60.5065 75.2217 68.0922 68.5053 73.7319C67.0015 74.9947 66.8172 75.0975 66.2301 75.0023C65.8787 74.9454 65.4249 74.7203 65.2215 74.5023L64.8518 74.1058L65.5233 72.0627C66.3419 69.5713 66.8222 67.653 67.2193 65.2881C67.4393 63.9775 67.6357 63.3584 67.9463 62.9937C68.8075 61.9825 77.3183 50.8403 78.3149 49.4194L79.117 48.2757L81.0066 48.3181L82.8961 48.3605L82.7861 49.0947Z" fill="white"/>
<path d="M76.5526 19.4968C81.4589 26.9345 83.9063 36.1048 83.2778 44.6947C83.1672 46.2061 83.0297 47.5973 82.9722 47.7863C82.8761 48.1022 82.6987 48.1233 80.7606 48.0492C79.3051 47.9936 78.608 47.895 78.5063 47.7303C78.4253 47.5995 78.1838 46.5978 77.9698 45.5048C77.7558 44.4115 77.3178 42.7898 76.9963 41.9007C76.2501 39.8372 74.3739 36.1595 73.0912 34.2453C72.5431 33.4275 72.0445 32.552 71.9831 32.2996C71.9218 32.0472 71.9541 30.6162 72.0549 29.1197C72.2483 26.248 72.088 22.6766 71.6393 19.8606C71.4563 18.7123 71.4492 18.3002 71.6104 18.1666C71.9366 17.8958 73.1512 17.6543 74.2878 17.6337L75.3116 17.6154L76.5526 19.4968Z" fill="white"/>
<path d="M60.8298 8.82134C64.8777 11.2729 69.8182 14.9814 70.3115 15.9386C70.5913 16.4814 71.2126 19.4742 71.5361 21.8371C71.7699 23.5447 71.7901 30.1227 71.5653 31.2794L71.4246 32.0032L68.5687 32.8492C66.998 33.3145 64.8911 33.9958 63.8866 34.3629C60.3584 35.6527 56.3992 36.8029 56.3187 36.5615C56.2093 36.2333 55.9073 36.4813 55.9073 36.8992C55.9073 37.0953 55.8579 37.2555 55.7975 37.2555C55.7373 37.2555 54.8582 36.4264 53.8442 35.413C50.664 32.2348 47.3877 29.8237 43.3934 27.722L41.3259 26.6341L41.3762 25.6864C41.4039 25.1651 41.291 23.6934 41.1251 22.416C40.8379 20.2033 40.841 19.8977 41.19 15.9634C41.3915 13.6919 41.6666 11.4696 41.8014 11.0249C42.0336 10.2589 42.1094 10.1925 43.2373 9.76866C44.9947 9.10805 49.1123 8.11319 51.3156 7.81694C52.3763 7.67432 54.4674 7.54913 55.9626 7.53886L58.6811 7.51995L60.8298 8.82134Z" fill="white"/>
<path d="M49.2953 1.63139C51.4324 2.02915 52.4364 2.27841 54.6498 2.96123L55.8715 3.33806L55.9918 4.13909C56.0579 4.57962 56.3371 5.38596 56.6123 5.93112L57.1124 6.92212L55.0865 7.0473C50.8449 7.30923 47.2 8.01206 43.6008 9.26187C40.3758 10.3817 40.783 10.3533 38.0603 9.6499C35.3713 8.95552 32.5414 8.62365 29.2754 8.62035C28.1137 8.61906 26.7356 8.56675 26.2129 8.50398L25.2626 8.38981L25.1616 7.54198C25.1061 7.07557 25.0378 6.28097 25.0099 5.7762L24.9592 4.85843L25.9694 4.36174C28.2852 3.22316 33.0213 1.91314 36.8058 1.36432C39.5098 0.972066 46.5632 1.12295 49.2953 1.63139Z" fill="white"/>
<path d="M24.802 6.62348L24.9728 8.29656L23.1155 10.1569C22.0939 11.18 20.3131 13.256 19.1578 14.7703C16.1692 18.6882 15.7282 19.3105 14.8493 20.8518C14.4184 21.6075 14.0118 22.1383 13.9457 22.0315C13.7592 21.7299 13.5179 21.8022 13.5462 22.1513C13.5607 22.3296 13.4143 22.4977 13.2079 22.5401C12.725 22.6388 10.1257 24.3584 8.36821 25.7416C7.59349 26.3512 5.94709 27.8448 4.70971 29.0606C3.47215 30.2765 2.45977 31.2148 2.45977 31.1458C2.45977 30.5828 4.02389 26.5509 5.10956 24.315C8.32596 17.6915 13.1451 12.1031 19.0818 8.11209C20.3807 7.23875 24.3138 4.95259 24.5197 4.95113C24.581 4.95058 24.7081 5.70314 24.802 6.62348Z" fill="white"/>
<path d="M14.8739 23.8152C18.224 28.5 20.3974 31.3247 21.6137 32.5744L23.0435 34.0433L22.4923 35.9707C21.1701 40.5955 20.7715 43.4829 20.7747 48.413L20.777 52.1365L19.8376 52.7854C19.3209 53.1422 18.0303 54.0464 16.9696 54.7949C14.6295 56.4462 12.4457 57.7835 11.8324 57.9407C11.5828 58.0047 11.1818 58.2395 10.9412 58.4625C10.5439 58.8305 10.4571 58.8447 9.9979 58.6158C9.46287 58.3491 7.91693 56.6762 6.37302 54.6931C5.07907 53.0312 3.62038 50.7503 2.26472 48.2687L1.11165 46.1578L1.02789 43.3078C0.936057 40.1751 1.17446 37.1006 1.71885 34.3961C2.11356 32.4345 2.28988 32.1693 5.06879 29.3528C7.50533 26.8833 11.5962 23.6735 12.3094 23.6717C12.4985 23.6711 12.9013 23.4676 13.2044 23.2194C13.5074 22.9713 13.838 22.7673 13.9391 22.7664C14.0401 22.7653 14.4609 23.2374 14.8739 23.8152Z" fill="white"/>
<path d="M3.56527 51.3087C5.00836 53.6756 6.92255 56.1732 8.90231 58.2723C9.37838 58.7771 9.82745 59.3966 9.90037 59.649C10.1158 60.3942 11.4494 63.4862 12.1999 64.9808C13.0181 66.61 15.7723 71.2132 16.8396 72.7354L17.5856 73.7993L17.1973 74.1873L16.8091 74.5753L14.9772 72.981C8.2468 67.1231 3.56729 58.9953 1.73649 49.9836C1.18383 47.2626 1.24627 47.0185 2.07903 48.6472C2.46951 49.4108 3.13824 50.6085 3.56527 51.3087Z" fill="white"/>
<path d="M20.0446 74.764C22.1606 75.8136 22.3781 75.8914 24.9592 76.5212C28.1258 77.2939 29.8978 77.5074 32.3522 77.4121L34.5099 77.3284L36.0006 78.2181C38.8432 79.9147 43.0131 81.7185 45.9615 82.5272C47.0033 82.8128 47.0815 82.8655 46.6962 83.0221C45.915 83.339 38.7723 83.2592 36.5228 82.9081C33.8149 82.4855 30.5115 81.6662 28.2652 80.8596C24.9853 79.6821 20.5104 77.2752 17.4335 75.0335C17.2523 74.9013 17.9989 73.9661 18.2859 73.9661C18.3686 73.9661 19.16 74.3251 20.0446 74.764Z" fill="white"/>
<circle cx="42" cy="42" r="40" stroke="black" stroke-width="4"/>
</g>
<defs>
<clipPath id="clip0_111_4">
<rect width="84" height="84" fill="white"/>
</clipPath>
</defs>
</svg>
